<svg xmlns="http://www.w3.org/2000/svg" width="512" height="512" viewBox="0 0 512 512" version="1.1">
	<path d="M 241.500 41.436 C 235.546 43.639, 231.995 48.072, 232.022 53.266 C 232.048 58.241, 233.854 62.444, 240.929 74 C 248.251 85.958, 258 105.692, 258 108.555 C 258 111.953, 254.520 112.559, 244.211 110.955 C 237.070 109.844, 231.350 109.857, 209.091 111.036 C 194.466 111.811, 177.215 112.457, 170.756 112.472 C 157.101 112.505, 157.104 112.522, 172.041 120.407 C 182.682 126.024, 198.586 131.346, 210.915 133.416 C 216.093 134.285, 220.484 135.150, 220.672 135.339 C 220.861 135.528, 211.781 143.697, 200.494 153.494 C 189.206 163.290, 180.108 171.442, 180.275 171.609 C 180.442 171.776, 200.087 166.070, 223.929 158.929 C 247.772 151.788, 267.401 146.071, 267.551 146.223 C 267.700 146.375, 268.570 149.393, 269.485 152.929 C 271.556 160.937, 274.508 166.824, 280.311 174.515 C 284.155 179.611, 293.468 188, 295.280 188 C 295.589 188, 297.743 180.013, 300.066 170.250 C 302.389 160.488, 304.593 152.154, 304.964 151.731 C 305.335 151.308, 307.035 153.108, 308.742 155.731 C 318.181 170.232, 334.665 182.500, 351.328 187.424 C 355.777 188.739, 356.106 188.720, 355.511 187.176 C 355.156 186.254, 353.038 179.875, 350.804 173 C 346.624 160.139, 341.526 149.189, 335.714 140.593 L 332.396 135.686 339.948 131.884 C 349.657 126.996, 358.511 119.756, 364.465 111.835 C 369.114 105.651, 373.469 98.136, 372.796 97.462 C 372.606 97.273, 370.465 98.008, 368.037 99.095 C 356.345 104.329, 349.820 105.318, 325.500 105.537 C 302.857 105.741, 302.368 105.791, 294 108.702 C 289.325 110.328, 284.789 111.979, 283.921 112.371 C 282.710 112.917, 282.071 112.180, 281.181 109.211 C 280.543 107.082, 277.553 100.311, 274.537 94.164 C 268.169 81.190, 266.578 75.718, 263.500 56.206 C 262.260 48.344, 261.040 41.707, 260.791 41.457 C 260.541 41.207, 256.998 40.767, 252.918 40.479 C 247.708 40.112, 244.309 40.397, 241.500 41.436 M 107.462 113.561 C 88.385 125.035, 67.203 146.599, 50.418 171.632 C 42.061 184.096, 31.116 206.364, 26.645 220 C 10.025 270.681, 16.952 325.638, 45.337 368.298 C 59.255 389.216, 83.389 411.209, 98.788 417.009 C 105.134 419.399, 107.862 419.524, 108.653 417.463 C 109.517 415.209, 107.201 413.136, 96.965 407 C 55.899 382.385, 28.906 336.733, 25.077 285.418 C 22.001 244.207, 35.753 201.739, 64.575 163.443 C 73.160 152.036, 84.722 140.204, 101 126.167 C 114.339 114.664, 117.241 111.247, 114.462 110.321 C 113.891 110.130, 110.741 111.588, 107.462 113.561 M 132.116 122.571 C 116.962 127.052, 110.030 130.442, 100.777 137.897 C 50.704 178.238, 30.441 267.812, 56.010 335.790 C 63.124 354.705, 72.128 368.340, 87.400 383.328 C 121.859 417.148, 169.900 438.214, 225.944 444.083 C 240.405 445.597, 278.024 444.719, 291.393 442.556 C 330.139 436.286, 363.924 423.807, 392.500 405.212 C 442.068 372.956, 471.136 322.625, 471.083 269.148 C 471.049 235.343, 460.012 206.551, 436.901 179.980 C 422.832 163.804, 397.295 146.163, 379.052 140.017 C 372.400 137.776, 359.644 135.815, 357.378 136.685 C 355.362 137.459, 355.648 141.048, 359.134 158.663 C 362.328 174.806, 363.510 193.879, 361.715 200.312 L 360.931 203.125 348.215 196.497 C 334.029 189.102, 313.574 175.891, 311.724 172.929 C 311.061 171.868, 310.215 171, 309.842 171 C 309.470 171, 306.843 177.971, 304.003 186.490 C 301.164 195.010, 298.489 202.198, 298.060 202.463 C 296.558 203.391, 281.434 195.226, 274.358 189.666 C 267.450 184.238, 259.772 175.502, 255.098 167.750 C 253.854 165.688, 252.456 164, 251.990 164 C 251.525 164, 245.149 165.386, 237.822 167.080 C 214.979 172.361, 171.053 179, 158.958 179 L 155.830 179 159.974 173.750 C 165.136 167.210, 176.904 155.147, 187.819 145.206 L 196.139 137.628 193.461 136.226 C 191.988 135.454, 185.040 133.779, 178.021 132.504 C 165.861 130.294, 159.922 128.302, 158.464 125.941 C 158.099 125.351, 155.978 123.548, 153.750 121.934 C 148.659 118.246, 146.529 118.309, 132.116 122.571 M 386.536 124.941 C 385.424 126.741, 386.762 127.734, 394.052 130.520 C 444.187 149.677, 479.001 188.747, 488.011 235.961 C 493.613 265.313, 490.606 291.513, 478.100 322.336 C 474.933 330.141, 472.528 337.083, 472.754 337.763 C 473.447 339.842, 476.382 339.040, 478.656 336.150 C 490.403 321.225, 498.045 293.307, 498.133 265 C 498.189 247.199, 496.241 234.717, 490.883 218.528 C 483.538 196.338, 472.455 178.488, 455.483 161.517 C 439.179 145.212, 421.677 134.166, 402.500 128.077 C 390.563 124.287, 387.333 123.653, 386.536 124.941 M 127.408 202.501 C 126.506 203.876, 124.583 205.567, 123.134 206.258 C 119.734 207.880, 118.996 212.392, 121.880 213.936 C 123.860 214.996, 123.856 215.073, 121.370 222.253 C 118.900 229.386, 112.280 252.988, 111.306 258.132 C 110.253 263.690, 116.036 262.926, 118.255 257.212 C 119.049 255.171, 120.268 250.734, 120.964 247.353 L 122.230 241.206 130.865 239.188 C 149.012 234.946, 157.941 229.648, 160.032 221.883 C 162.351 213.270, 155.839 207.137, 141.968 204.871 C 136.898 204.043, 134.080 203.065, 133.193 201.826 C 131.388 199.304, 129.346 199.542, 127.408 202.501 M 132.267 213.250 C 131.411 214.345, 125 231.373, 125 232.552 C 125 233.674, 130.562 232.790, 137.698 230.534 C 146.331 227.806, 153.698 223.526, 154.587 220.725 C 155.346 218.333, 152.550 214.160, 149.383 212.955 C 145.662 211.541, 133.439 211.751, 132.267 213.250 M 283.174 219.750 C 282.680 220.713, 281.964 222.850, 281.583 224.500 C 279.383 234.013, 278.931 235, 276.777 235 C 270.026 235, 260.931 243.226, 259.551 250.578 C 258.117 258.224, 265.143 261.649, 272.750 257.011 C 275.220 255.505, 276 255.360, 276 256.408 C 276 258.111, 278.261 259.074, 279.892 258.066 C 280.559 257.655, 281.478 253.759, 281.935 249.409 C 282.392 245.059, 283.968 236.824, 285.436 231.109 C 286.905 225.395, 287.871 220.107, 287.584 219.359 C 286.848 217.440, 284.239 217.671, 283.174 219.750 M 193.250 232.667 C 192.563 232.942, 192 233.799, 192 234.573 C 192 235.346, 190.642 240.814, 188.983 246.724 C 187.324 252.633, 186.184 258.038, 186.452 258.734 C 186.719 259.430, 187.829 260, 188.918 260 C 190.547 260, 191.114 258.907, 192.109 253.854 C 192.943 249.611, 194.243 246.654, 196.307 244.303 C 199.655 240.490, 204.603 237.549, 205.427 238.882 C 205.724 239.363, 204.842 243.516, 203.466 248.112 C 200.762 257.146, 200.845 259, 203.950 259 C 205.341 259, 206.136 258.152, 206.526 256.250 C 208.020 248.976, 209.371 245.303, 211.345 243.155 C 213.581 240.722, 218.125 238, 219.950 238 C 221.780 238, 221.041 244.285, 218.481 250.500 C 215.642 257.392, 215.487 258.589, 217.341 259.300 C 219.427 260.101, 220.713 258.836, 222.826 253.907 C 226.005 246.489, 227.442 238.694, 226.094 236.175 C 224.356 232.929, 220.662 232.463, 215.786 234.876 C 212.146 236.677, 211.446 236.761, 210.731 235.483 C 209.660 233.571, 204.323 233.583, 200.636 235.506 C 197.039 237.382, 197.200 237.411, 196.820 234.828 C 196.483 232.539, 195.324 231.837, 193.250 232.667 M 169.900 234.991 C 165.830 237.142, 160.330 243.003, 158.933 246.676 C 158.420 248.026, 158 250.676, 158 252.565 C 158 262.743, 171.679 262.486, 178.500 252.179 C 183.268 244.974, 182.666 235.964, 177.279 233.916 C 174.183 232.739, 174.153 232.743, 169.900 234.991 M 244.745 234.383 C 234.711 238.830, 228.151 253.465, 234.051 258.242 C 241.672 264.413, 255.263 254.568, 255.430 242.755 C 255.490 238.553, 255.088 237.475, 252.694 235.415 C 249.573 232.729, 248.726 232.619, 244.745 234.383 M 300.900 234.991 C 296.830 237.142, 291.330 243.003, 289.933 246.676 C 287.164 253.959, 290.164 260, 296.550 260 C 301.445 260, 305.505 257.667, 308.997 252.846 C 313.798 246.218, 314.183 239.183, 309.975 234.975 C 307.538 232.538, 305.534 232.542, 300.900 234.991 M 352.745 234.383 C 342.711 238.830, 336.151 253.465, 342.051 258.242 C 349.672 264.413, 363.263 254.568, 363.430 242.755 C 363.490 238.553, 363.088 237.475, 360.694 235.415 C 357.573 232.729, 356.726 232.619, 352.745 234.383 M 321.576 235.250 C 320.194 240.024, 317.825 257.101, 318.353 258.477 C 319.569 261.646, 321.405 259.373, 323.121 252.573 C 324.238 248.147, 325.799 244.775, 327.604 242.891 C 330.654 239.707, 332.053 239.392, 334.989 241.225 C 337.537 242.816, 339.474 241.068, 338.514 238.043 C 337.238 234.022, 331.783 233.349, 327.841 236.725 C 326.379 237.977, 326.103 237.899, 325.523 236.073 C 324.804 233.806, 322.153 233.253, 321.576 235.250 M 427.914 239.324 C 420.992 242.231, 414.731 244.410, 414.001 244.167 C 413.271 243.924, 412.183 244.397, 411.582 245.219 C 410.981 246.041, 407.117 248.192, 402.995 250 C 385.954 257.474, 370.845 265.197, 367.473 268.157 C 365.498 269.892, 363 273.041, 361.921 275.155 C 360.529 277.884, 359.312 278.998, 357.730 278.994 C 355.763 278.989, 344.993 277.482, 332.250 275.429 C 328.661 274.851, 328 275.006, 328 276.428 C 328 280.119, 344.846 284.952, 357.817 284.983 C 364.121 284.998, 365.600 285.356, 368.508 287.574 C 380.563 296.768, 405.041 297.378, 419.941 288.854 C 430.439 282.848, 438.989 271.766, 442.586 259.500 C 445.606 249.203, 444.731 233.910, 441.128 234.019 C 440.782 234.030, 434.836 236.417, 427.914 239.324 M 173 239.652 C 166.887 241.666, 162.627 246.906, 163.182 251.729 C 163.436 253.942, 164.076 254.566, 166.364 254.827 C 171.562 255.422, 178.205 246.373, 176.505 241.016 C 175.844 238.934, 175.539 238.816, 173 239.652 M 245.686 240.017 C 241.749 241.198, 239.950 242.904, 237.960 247.344 C 235.601 252.604, 236.374 255, 240.430 255 C 245.868 255, 252.120 246.104, 250.428 240.773 C 249.808 238.819, 249.721 238.805, 245.686 240.017 M 304 239.652 C 297.887 241.666, 293.627 246.906, 294.182 251.729 C 294.554 254.968, 297.867 255.944, 301.639 253.925 C 304.773 252.248, 308.387 244.678, 307.583 241.474 C 306.949 238.949, 306.628 238.786, 304 239.652 M 353.686 240.017 C 349.749 241.198, 347.950 242.904, 345.960 247.344 C 343.601 252.604, 344.374 255, 348.430 255 C 353.868 255, 360.120 246.104, 358.428 240.773 C 357.808 238.819, 357.721 238.805, 353.686 240.017 M 272.500 241.167 C 266.895 244.267, 263.397 249.526, 264.542 253.132 C 265.307 255.541, 267.458 255.498, 271.514 252.991 C 274.681 251.034, 276.262 248.362, 277.574 242.750 C 278.100 240.500, 277.879 240.006, 276.358 240.030 C 275.336 240.047, 273.600 240.559, 272.500 241.167 M 423.880 246.779 L 415.260 250.234 414.628 256.282 C 414.281 259.608, 414.125 262.458, 414.281 262.615 C 414.438 262.772, 417.477 260.885, 421.033 258.423 C 425.512 255.323, 428.383 252.403, 430.372 248.928 C 431.951 246.168, 433.076 243.778, 432.872 243.617 C 432.667 243.455, 428.621 244.878, 423.880 246.779 M 434.032 251.745 C 432.125 255.460, 428.201 260.879, 425.312 263.786 L 420.059 269.072 422.779 270.120 C 428.346 272.264, 430.216 271.770, 432.694 267.500 C 435.933 261.917, 438.176 253.822, 437.809 249.035 L 437.500 244.991 434.032 251.745 M 402.638 255.799 L 396.776 258.500 394.535 266.271 L 392.294 274.041 394.397 273.395 C 395.554 273.039, 399.243 271.514, 402.596 270.007 C 408.600 267.306, 408.702 267.194, 409.346 262.493 C 410.206 256.217, 410.173 252.989, 409.250 253.049 C 408.837 253.076, 405.862 254.314, 402.638 255.799 M 382 264.954 C 377.875 267.073, 372.700 270.421, 370.500 272.393 C 366.626 275.866, 366.561 276.027, 368.451 277.497 C 370.457 279.057, 372.064 278.979, 382.575 276.808 L 387.649 275.760 388.873 269.836 C 389.546 266.578, 390.348 263.257, 390.655 262.456 C 391.466 260.342, 390.345 260.666, 382 264.954 M 407.061 275.258 C 400.998 278.172, 400.765 278.408, 403.061 279.309 C 404.403 279.835, 407.635 281.261, 410.244 282.477 L 414.989 284.689 419.994 281.318 C 422.748 279.464, 425 277.571, 425 277.112 C 425 276.462, 414.345 271.735, 413.661 272.082 C 413.572 272.126, 410.603 273.556, 407.061 275.258 M 386.500 282.114 C 379.525 283.707, 379.208 283.997, 382.500 285.769 C 386.107 287.711, 402.302 288.662, 406 287.149 C 407.714 286.448, 407.959 286.107, 406.779 286.063 C 405.832 286.029, 402.513 284.875, 399.404 283.500 C 393.316 280.808, 392.572 280.728, 386.500 282.114 M 148 293.637 C 135.503 295.462, 119.890 300.891, 117.555 304.224 C 116.510 305.717, 116.376 306.834, 117.083 308.155 C 118.412 310.638, 119.614 310.503, 127.340 307 C 130.979 305.350, 134.416 304, 134.978 304 C 136.878 304, 136.017 309.420, 131.368 326.729 C 127.506 341.110, 126.951 344.236, 128.030 345.537 C 128.742 346.395, 130.186 346.962, 131.237 346.798 C 132.824 346.551, 133.928 343.514, 137.712 329 C 140.221 319.375, 142.754 309.167, 143.340 306.316 L 144.406 301.133 151.453 300.576 C 155.329 300.270, 160.300 300.128, 162.500 300.260 C 166.190 300.481, 166.525 300.287, 166.816 297.750 C 167.069 295.557, 166.601 294.799, 164.501 294 C 161.993 293.047, 153.347 292.857, 148 293.637 M 215.266 310.250 C 213.894 312.002, 205.739 345.409, 206.157 347.565 C 206.824 351.007, 208.797 350.022, 211.764 344.765 C 215.535 338.082, 223.318 330.697, 223.824 333.322 C 224.009 334.288, 223.450 337.165, 222.581 339.717 C 220.555 345.663, 220.575 348.900, 222.645 349.694 C 224.619 350.451, 227 347.579, 227 344.439 C 227 343.241, 227.883 339.495, 228.963 336.116 C 230.043 332.736, 230.650 329.252, 230.313 328.374 C 229.340 325.836, 222.499 327.264, 217.892 330.966 C 215.751 332.687, 214.010 333.961, 214.022 333.797 C 214.034 333.634, 215.357 328.351, 216.962 322.058 C 218.567 315.765, 219.656 310.252, 219.381 309.808 C 218.631 308.594, 216.373 308.836, 215.266 310.250 M 272.596 314.306 C 270.324 315.968, 270.874 319.500, 273.405 319.500 C 276.260 319.500, 277.832 316.403, 275.938 314.509 C 274.652 313.224, 274.120 313.191, 272.596 314.306 M 194.468 322.950 C 188.165 325.506, 180.936 339.070, 182.993 344.482 C 184.966 349.672, 191.400 350.059, 197.024 345.326 C 199.764 343.021, 201.029 339.995, 199.250 340.004 C 198.838 340.006, 197.027 340.906, 195.226 342.004 C 191.400 344.336, 188.161 344.582, 187.399 342.597 C 186.757 340.924, 190.618 331.562, 192.643 329.881 C 193.426 329.232, 195.508 328.655, 197.270 328.600 C 200.796 328.490, 202.089 326.017, 199.960 323.452 C 198.621 321.838, 197.471 321.733, 194.468 322.950 M 241.588 324.250 C 240.179 326.423, 235.870 338.731, 234.626 344.136 C 233.989 346.902, 236.051 349.704, 237.889 348.569 C 238.426 348.237, 239.395 345.385, 240.042 342.233 C 240.998 337.574, 242.014 335.733, 245.466 332.404 C 250.175 327.863, 253.811 326.344, 254.662 328.561 C 254.958 329.334, 253.788 333.872, 252.061 338.644 C 248.954 347.233, 249.021 349.973, 252.310 348.711 C 254.028 348.052, 260 332.082, 260 328.148 C 260 326.636, 259.460 324.860, 258.800 324.200 C 257.162 322.562, 252.498 322.691, 249.059 324.469 C 246.420 325.834, 246.181 325.798, 245.702 323.969 C 245.021 321.364, 243.386 321.476, 241.588 324.250 M 297.439 324.067 C 296.430 325.182, 294.380 326.002, 292.595 326.004 C 285.734 326.012, 278.195 334.091, 277.253 342.446 C 276.801 346.461, 277.001 347.043, 279.177 348.035 C 281.112 348.916, 282.664 348.740, 286.803 347.167 C 292.691 344.930, 292.650 344.871, 290.894 353.059 C 289.961 357.408, 290.032 358.460, 291.344 359.772 C 293.632 362.060, 295.998 359.705, 296.009 355.128 C 296.014 353.132, 297.164 346.550, 298.563 340.500 C 302.347 324.150, 302.439 323.382, 300.701 322.715 C 299.865 322.395, 298.405 323, 297.439 324.067 M 325.432 324.750 C 323.374 334.082, 321.684 338.193, 318.530 341.537 C 312.522 347.907, 310.420 343.950, 313.810 332.651 C 315.852 325.844, 315.470 323.572, 312.380 324.163 C 310.941 324.439, 309.970 326.549, 308.238 333.166 C 305.715 342.809, 306.127 345.727, 310.406 348.531 C 313.524 350.574, 316.425 349.753, 320.027 345.809 L 322.722 342.859 323.336 345.929 C 323.692 347.708, 324.577 349, 325.440 349 C 327.518 349, 329.288 345.285, 328.572 342.429 C 328.243 341.118, 328.661 336.715, 329.502 332.644 C 331.170 324.567, 330.787 322, 327.912 322 C 326.681 322, 325.830 322.944, 325.432 324.750 M 166.356 326.924 C 164.628 327.979, 161.648 330.890, 159.736 333.395 C 156.564 337.549, 156.327 338.318, 157.030 342.165 C 157.454 344.484, 158.607 346.971, 159.592 347.691 C 163.953 350.879, 178 347.337, 178 343.049 C 178 340.470, 177.118 340.483, 171.650 343.139 C 166.177 345.798, 161.697 345.135, 162.185 341.739 C 162.435 339.998, 163.424 339.391, 166.998 338.784 C 172.402 337.866, 176.151 335.276, 177.480 331.543 C 178.313 329.202, 178.110 328.508, 176.119 326.895 C 173.151 324.492, 170.332 324.500, 166.356 326.924 M 269.309 326.250 C 268.864 326.938, 267.290 331.987, 265.810 337.470 C 263.127 347.416, 263.262 350, 266.463 350 C 267.763 350, 274.280 327.263, 273.393 325.827 C 272.625 324.584, 270.226 324.833, 269.309 326.250 M 346.966 325.820 C 344.169 327.060, 341.498 329.453, 338.224 333.652 C 335.513 337.129, 335.066 338.430, 335.469 341.652 C 336.090 346.607, 338.987 349, 344.361 348.998 C 348.903 348.997, 354.762 346.464, 356.390 343.798 C 358.150 340.915, 356.169 340.520, 351.451 342.811 C 346.453 345.240, 342.991 345.591, 341.247 343.847 C 339.651 342.251, 341.508 339, 344.015 339 C 347.213 339, 353.988 335.891, 355.029 333.945 C 358.212 327.999, 353.275 323.024, 346.966 325.820 M 166.494 332.006 C 165.496 333.110, 164.903 334.237, 165.177 334.511 C 166.133 335.466, 172 332.793, 172 331.402 C 172 329.327, 168.580 329.702, 166.494 332.006 M 344.924 332.641 L 342.500 335.282 345.494 334.561 C 348.743 333.778, 351 332.268, 351 330.878 C 351 329.027, 347.240 330.118, 344.924 332.641 M 285.616 335.003 C 283.411 337.444, 282 340.022, 282 341.611 C 282 343.951, 282.280 344.148, 284.750 343.539 C 290.313 342.168, 293.388 339.582, 294.653 335.213 L 295.873 331 292.553 331 C 289.948 331, 288.454 331.862, 285.616 335.003 M 439.387 384.850 C 436.699 387.009, 432.025 391.338, 429 394.470 C 409.458 414.703, 375.313 436.153, 344.500 447.551 C 332.222 452.093, 311.884 457.310, 297.940 459.493 C 292.198 460.392, 279.362 461.386, 269.414 461.701 C 242.884 462.542, 227.060 460.569, 190.626 451.874 C 179.571 449.236, 173.413 448.187, 172.769 448.831 C 171.446 450.154, 174.502 452.026, 185.097 456.384 C 206.162 465.049, 226.204 468.953, 253.500 469.709 C 313.598 471.373, 369.798 452.556, 416.974 414.972 C 435.572 400.155, 447.609 387.383, 446.818 383.304 C 446.261 380.435, 444.403 380.822, 439.387 384.850" stroke="none" fill="black" fill-rule="evenodd"/>
</svg>